<svg width="100px" class="moc-logo" height="33px" version="1.1" id="Lag_1" xmlns="http://www.w3.org/2000/svg" xmlns:xlink="http://www.w3.org/1999/xlink" x="0px" y="0px" viewBox="0 0 100 32" enable-background="new 0 0 100 32" xml:space="preserve">
	<g class="mocSvgLogo">
		<path fill="none" stroke="#000000" d="M17,31.3c-0.9,0-1.3-0.3-1.6-1.5L9.6,12H8.4v19.4H0.4V0.2H12c1,0,1.4,0.2,1.7,1l2.1,7.1l6.3,20.6 l-0.3,0.9c-0.4,1.3-0.8,1.5-1.6,1.5L17,31.3L17,31.3z"></path>
		<path fill="none" stroke="#000000" d="M28.8,31.3V12h-1.2l-3.9,11.9l-3.3-11l3.1-11.2c0.4-1.3,0.7-1.6,1.9-1.6h11.6v31.2L28.8,31.3L28.8,31.3z"></path>
		<path fill="none" stroke="#000000" d="M49.2,31.3c-3,0-4.7-0.5-5.9-1.7c-1.4-1.4-3.3-4.4-3.3-13.9s1.9-12.5,3.3-13.9c1.2-1.2,2.9-1.7,5.9-1.7h10.5c3,0,4.7,0.5,5.9,1.7c1.4,1.4,3.3,4.4,3.3,13.9c0,9.5-1.9,12.5-3.3,13.9c-1.2,1.2-2.9,1.7-5.9,1.7L49.2,31.3L49.2,31.3zM52.4,6.8c-1.5,0-2,0.1-2.4,0.5c-0.5,0.5-1,1.6-1,8.5c0,6.9,0.5,8,1,8.5c0.4,0.4,0.9,0.5,2.4,0.5h4c1.5,0,2-0.1,2.4-0.5c0.3-0.3,1-1,1-8.5c0-6.9-0.5-8-1-8.5c-0.4-0.4-0.9-0.5-2.4-0.5H52.4z"></path>
		<path fill="none" stroke="#000000" d="M80.8,31.3c-3,0-4.7-0.5-5.9-1.7c-1.4-1.4-3.3-4.4-3.3-13.9s1.9-12.5,3.3-13.9c1.2-1.2,2.9-1.7,5.9-1.7h10.5c3,0,4.7,0.5,5.9,1.7c1.5,1.6,2.2,4.4,2.3,10.1h-8.3c-0.2-4-0.6-4.4-0.9-4.7c-0.4-0.4-0.9-0.5-2.4-0.5h-4c-1.5,0-2,0.1-2.4,0.5c-0.5,0.5-1,1.6-1,8.5s0.5,8,1,8.5c0.4,0.4,0.9,0.5,2.4,0.5h4c1.5,0,2-0.1,2.4-0.5c0.4-0.4,0.7-1.1,0.9-4.9h8.3c-0.1,5.9-0.7,8.7-2.3,10.3c-1.2,1.2-2.9,1.7-5.9,1.7L80.8,31.3L80.8,31.3z"></path>
	</g>
</svg>